<svg xmlns="http://www.w3.org/2000/svg" xmlns:svg="http://www.w3.org/2000/svg" xmlns:xlink="http://www.w3.org/1999/xlink" id="svg2" width="118.572" height="119.882" version="1.0"><metadata id="metadata371"/><defs id="defs4"><linearGradient id="linearGradient2795"><stop id="stop2797" offset="0" stop-color="#b8b8b8" stop-opacity=".498"/><stop id="stop2799" offset="1" stop-color="#7f7f7f" stop-opacity="0"/></linearGradient><linearGradient id="linearGradient2787"><stop id="stop2789" offset="0" stop-color="#7f7f7f" stop-opacity=".5"/><stop id="stop2791" offset="1" stop-color="#7f7f7f" stop-opacity="0"/></linearGradient><linearGradient id="linearGradient3676"><stop id="stop3678" offset="0" stop-color="#b2b2b2" stop-opacity=".5"/><stop id="stop3680" offset="1" stop-color="#b3b3b3" stop-opacity="0"/></linearGradient><linearGradient id="linearGradient3236"><stop id="stop3244" offset="0" stop-color="#f4f4f4" stop-opacity="1"/><stop id="stop3240" offset="1" stop-color="#fff" stop-opacity="1"/></linearGradient><linearGradient id="linearGradient4671"><stop id="stop4673" offset="0" stop-color="#ffd43b" stop-opacity="1"/><stop id="stop4675" offset="1" stop-color="#ffe873" stop-opacity="1"/></linearGradient><linearGradient id="linearGradient4689"><stop id="stop4691" offset="0" stop-color="#5a9fd4" stop-opacity="1"/><stop id="stop4693" offset="1" stop-color="#306998" stop-opacity="1"/></linearGradient><linearGradient id="linearGradient2987" x1="224.24" x2="-65.309" y1="144.757" y2="144.757" gradientTransform="translate(100.2702,99.61116)" gradientUnits="userSpaceOnUse" xlink:href="#linearGradient4671"/><linearGradient id="linearGradient2990" x1="172.942" x2="26.67" y1="77.476" y2="76.313" gradientTransform="translate(100.2702,99.61116)" gradientUnits="userSpaceOnUse" xlink:href="#linearGradient4689"/><linearGradient id="linearGradient2587" x1="172.942" x2="26.67" y1="77.476" y2="76.313" gradientTransform="translate(100.2702,99.61116)" gradientUnits="userSpaceOnUse" xlink:href="#linearGradient4689"/><linearGradient id="linearGradient2589" x1="224.24" x2="-65.309" y1="144.757" y2="144.757" gradientTransform="translate(100.2702,99.61116)" gradientUnits="userSpaceOnUse" xlink:href="#linearGradient4671"/><linearGradient id="linearGradient2248" x1="172.942" x2="26.67" y1="77.476" y2="76.313" gradientTransform="translate(100.2702,99.61116)" gradientUnits="userSpaceOnUse" xlink:href="#linearGradient4689"/><linearGradient id="linearGradient2250" x1="224.24" x2="-65.309" y1="144.757" y2="144.757" gradientTransform="translate(100.2702,99.61116)" gradientUnits="userSpaceOnUse" xlink:href="#linearGradient4671"/><linearGradient id="linearGradient2255" x1="224.24" x2="-65.309" y1="144.757" y2="144.757" gradientTransform="matrix(0.562541,0,0,0.567972,-11.5974,-7.60954)" gradientUnits="userSpaceOnUse" xlink:href="#linearGradient4671"/><linearGradient id="linearGradient2258" x1="172.942" x2="26.67" y1="76.176" y2="76.313" gradientTransform="matrix(0.562541,0,0,0.567972,-11.5974,-7.60954)" gradientUnits="userSpaceOnUse" xlink:href="#linearGradient4689"/><radialGradient id="radialGradient2801" cx="61.519" cy="132.286" r="29.037" fx="61.519" fy="132.286" gradientTransform="matrix(1,0,0,0.177966,0,108.7434)" gradientUnits="userSpaceOnUse" xlink:href="#linearGradient2795"/><linearGradient id="linearGradient1475" x1="150.961" x2="112.031" y1="192.352" y2="137.273" gradientTransform="matrix(0.562541,0,0,0.567972,-14.99112,-11.702371)" gradientUnits="userSpaceOnUse" xlink:href="#linearGradient4671"/><linearGradient id="linearGradient1478" x1="26.649" x2="135.665" y1="20.604" y2="114.398" gradientTransform="matrix(0.562541,0,0,0.567972,-14.99112,-11.702371)" gradientUnits="userSpaceOnUse" xlink:href="#linearGradient4689"/></defs><path id="path1948" fill="url(#linearGradient1478)" fill-opacity="1" d="M 54.918785,9.1927389e-4 C 50.335132,0.02221727 45.957846,0.41313697 42.106285,1.0946693 30.760069,3.0991731 28.700036,7.2947714 28.700035,15.032169 l 0,10.21875 26.8125,0 0,3.40625 -26.8125,0 -10.0625,0 c -7.792459,0 -14.6157588,4.683717 -16.7499998,13.59375 -2.46181998,10.212966 -2.57101508,16.586023 0,27.25 1.9059283,7.937852 6.4575432,13.593748 14.2499998,13.59375 l 9.21875,0 0,-12.25 c 0,-8.849902 7.657144,-16.656248 16.75,-16.65625 l 26.78125,0 c 7.454951,0 13.406253,-6.138164 13.40625,-13.625 l 0,-25.53125 c 0,-7.2663386 -6.12998,-12.7247771 -13.40625,-13.9374997 C 64.281548,0.32794397 59.502438,-0.02037903 54.918785,9.1927389e-4 Z m -14.5,8.21875012611 c 2.769547,0 5.03125,2.2986456 5.03125,5.1249996 -2e-6,2.816336 -2.261703,5.09375 -5.03125,5.09375 -2.779476,-1e-6 -5.03125,-2.277415 -5.03125,-5.09375 -10e-7,-2.826353 2.251774,-5.1249996 5.03125,-5.1249996 z"/><path id="path1950" fill="url(#linearGradient1475)" fill-opacity="1" d="m 85.637535,28.657169 0,11.90625 c 0,9.230755 -7.825895,16.999999 -16.75,17 l -26.78125,0 c -7.335833,0 -13.406249,6.278483 -13.40625,13.625 l 0,25.531247 c 0,7.266344 6.318588,11.540324 13.40625,13.625004 8.487331,2.49561 16.626237,2.94663 26.78125,0 6.750155,-1.95439 13.406253,-5.88761 13.40625,-13.625004 l 0,-10.218747 -26.78125,0 0,-3.40625 26.78125,0 13.406254,0 c 7.792461,0 10.696251,-5.435408 13.406241,-13.59375 2.79933,-8.398886 2.68022,-16.475776 0,-27.25 -1.92578,-7.757441 -5.60387,-13.59375 -13.406241,-13.59375 l -10.062504,0 z m -15.0625,64.65625 c 2.779478,3e-6 5.03125,2.277417 5.03125,5.093747 -2e-6,2.826354 -2.251775,5.125004 -5.03125,5.125004 -2.76955,0 -5.03125,-2.29865 -5.03125,-5.125004 2e-6,-2.81633 2.261697,-5.093747 5.03125,-5.093747 z"/></svg>