<svg xmlns="http://www.w3.org/2000/svg" xmlns:svg="http://www.w3.org/2000/svg" xmlns:xlink="http://www.w3.org/1999/xlink" id="svg2" width="171.506" height="139.379" x="0" y="0" enable-background="new 0 0 171.506 139.379" version="1.1" viewBox="0 0 171.506 139.379" xml:space="preserve"><g id="layer1" transform="translate(-282.32053,-396.30734)"><path id="path5" fill="#FFF" d="M453.826,412.806c-6.31,2.799-13.092,4.689-20.209,5.54 c7.265-4.354,12.845-11.249,15.471-19.466c-6.799,4.032-14.329,6.96-22.345,8.538c-6.417-6.839-15.563-11.111-25.683-11.111 c-19.432,0-35.187,15.754-35.187,35.186c0,2.758,0.311,5.443,0.911,8.019c-29.243-1.467-55.17-15.476-72.524-36.764 c-3.029,5.196-4.765,11.24-4.765,17.688c0,12.208,6.212,22.978,15.653,29.287c-5.768-0.183-11.193-1.766-15.938-4.4 c-0.004,0.146-0.004,0.294-0.004,0.442c0,17.048,12.129,31.269,28.226,34.503c-2.952,0.804-6.061,1.233-9.27,1.233 c-2.268,0-4.472-0.221-6.62-0.631c4.478,13.979,17.472,24.151,32.87,24.435c-12.043,9.438-27.214,15.063-43.7,15.063 c-2.84,0-5.641-0.167-8.394-0.492c15.572,9.984,34.067,15.81,53.938,15.81c64.721,0,100.113-53.615,100.113-100.114 c0-1.525-0.034-3.043-0.102-4.553C443.144,426.059,449.108,419.863,453.826,412.806L453.826,412.806z"/></g></svg>